<svg version="1.1" xmlns="http://www.w3.org/2000/svg" xmlns:xlink="http://www.w3.org/1999/xlink">

  <svg id="logo" viewBox="0 0 149 29" fill="none" xmlns="http://www.w3.org/2000/svg">
  <path d="M6.35953 11.0388H3.03274V8.57193H6.35953C6.81286 8.57193 7.1805 8.49606 7.46229 8.34438C7.74414 8.19265 7.94939 7.98328 8.07805 7.71627C8.21283 7.44315 8.28022 7.13668 8.28022 6.79687C8.28022 6.43276 8.21283 6.09595 8.07805 5.78642C7.94939 5.47695 7.74414 5.22812 7.46229 5.03999C7.1805 4.8458 6.81286 4.7487 6.35953 4.7487H4.24582V15.5357H1.02014V2.2818H6.35953C7.43165 2.2818 8.35373 2.476 9.1257 2.86439C9.9038 3.25278 10.5011 3.78682 10.9177 4.46651C11.3344 5.14013 11.5426 5.91086 11.5426 6.77864C11.5426 7.63434 11.3344 8.38078 10.9177 9.01801C10.5011 9.65518 9.9038 10.1528 9.1257 10.5109C8.35373 10.8629 7.43165 11.0388 6.35953 11.0388Z" fill="#131313"/>
  <path d="M12.9031 2.2818H18.1689C19.1982 2.2818 20.0927 2.43352 20.8524 2.73695C21.6121 3.04038 22.1972 3.48946 22.6077 4.08419C23.0243 4.67891 23.2326 5.4132 23.2326 6.28709C23.2326 7.0457 23.1131 7.67986 22.8742 8.18964C22.6352 8.69937 22.3014 9.12116 21.8725 9.45492C21.4497 9.78262 20.9566 10.0527 20.3929 10.2651L19.3361 10.8568H14.9157L14.8973 8.3899H18.1689C18.5794 8.3899 18.9194 8.31704 19.189 8.17141C19.4586 8.02574 19.6608 7.81943 19.7956 7.55242C19.9365 7.2793 20.0069 6.95466 20.0069 6.57838C20.0069 6.19605 19.9365 5.86835 19.7956 5.59528C19.6547 5.32216 19.4463 5.11282 19.1706 4.96717C18.901 4.82153 18.5672 4.7487 18.1689 4.7487H16.1287V15.5357H12.9031V2.2818ZM20.2275 15.5357L17.2683 9.67341L20.687 9.65518L23.6829 15.3991V15.5357H20.2275Z" fill="#131313"/>
  <path d="M30.4747 5.06731L27.2123 15.5357H23.7477L28.6643 2.2818H30.8607L30.4747 5.06731ZM33.1766 15.5357L29.9049 5.06731L29.4822 2.2818H31.7062L36.6504 15.5357H33.1766ZM33.0479 10.5928V13.0597H26.183V10.5928H33.0479Z" fill="#131313"/>
  <path d="M41.6041 12.4134L44.3886 2.2818H48.0003L43.488 15.5357H41.1537L41.6041 12.4134ZM39.0768 2.2818L41.8614 12.4134L42.33 15.5357H39.9683L35.4835 2.2818H39.0768Z" fill="#131313"/>
  <path d="M52.9541 15.5357H49.9857L50.0041 13.0779H52.9541C53.5668 13.0779 54.0844 12.9323 54.5073 12.641C54.936 12.3497 55.2607 11.9158 55.4813 11.3392C55.7082 10.7567 55.8211 10.0406 55.8211 9.19092V8.61744C55.8211 7.98027 55.7568 7.42192 55.6282 6.94249C55.5059 6.45705 55.3218 6.05348 55.0772 5.73184C54.832 5.40409 54.5256 5.15834 54.1581 4.99448C53.7963 4.83063 53.3796 4.7487 52.908 4.7487H49.9306V2.2818H52.908C53.8146 2.2818 54.6448 2.43655 55.3987 2.74605C56.1583 3.04948 56.8139 3.48642 57.365 4.05687C57.9228 4.62126 58.3515 5.29187 58.6516 6.06866C58.958 6.83933 59.1112 7.69504 59.1112 8.63567V9.19092C59.1112 10.1255 58.958 10.9812 58.6516 11.758C58.3515 12.5348 57.9259 13.2053 57.3744 13.7697C56.8228 14.3341 56.1704 14.771 55.417 15.0806C54.6694 15.384 53.8486 15.5357 52.9541 15.5357ZM51.8328 2.2818V15.5357H48.6072V2.2818H51.8328Z" fill="#131313"/>
  <path d="M65.8847 5.06731L62.6224 15.5357H59.1577L64.0742 2.2818H66.2705L65.8847 5.06731ZM68.5865 15.5357L65.3148 5.06731L64.8924 2.2818H67.1164L72.0606 15.5357H68.5865ZM68.4579 10.5928V13.0597H61.5929V10.5928H68.4579Z" fill="#131313"/>
  <path d="M78.5674 8.63568V11.0116H73.0439V8.63568H78.5674Z" fill="#131313"/>
  <path d="M91.9388 2.2818V15.5357H88.7225L83.9895 7.28842V15.5357H80.7638V2.2818H83.9895L88.7225 10.5291V2.2818H91.9388Z" fill="#131313"/>
  <path d="M102.811 13.0779V15.5357H95.6794V13.0779H102.811ZM96.8285 2.2818V15.5357H93.6028V2.2818H96.8285ZM101.892 7.54331V9.91918H95.6794V7.54331H101.892ZM102.839 2.2818V4.7487H95.6794V2.2818H102.839Z" fill="#131313"/>
  <path d="M106.846 14.3341L109.511 2.2818H111.101L111.965 3.31043L109.125 15.5357H107.37L106.846 14.3341ZM106.138 2.2818L108.39 14.4252L107.811 15.5357H105.78L102.94 2.2818H106.138ZM113.426 14.3614L115.659 2.2818H118.848L116.008 15.5357H113.987L113.426 14.3614ZM112.25 2.2818L114.979 14.4069L114.428 15.5357H112.672L109.768 3.29223L110.669 2.2818H112.25Z" fill="#131313"/>
  <path d="M126.632 12.0129C126.632 11.8065 126.601 11.6214 126.54 11.4576C126.479 11.2877 126.366 11.1299 126.2 10.9842C126.035 10.8386 125.796 10.6929 125.484 10.5473C125.177 10.3955 124.773 10.2378 124.27 10.0739C123.682 9.87971 123.115 9.66123 122.57 9.41851C122.025 9.16968 121.538 8.88144 121.109 8.55374C120.68 8.21993 120.34 7.83153 120.089 7.38856C119.838 6.93947 119.712 6.41758 119.712 5.82282C119.712 5.2524 119.841 4.73959 120.098 4.28444C120.355 3.82322 120.714 3.43179 121.174 3.11016C121.639 2.78245 122.184 2.53364 122.81 2.36371C123.434 2.18773 124.117 2.09973 124.858 2.09973C125.839 2.09973 126.703 2.26965 127.45 2.60949C128.204 2.94327 128.792 3.41966 129.214 4.03866C129.644 4.65159 129.858 5.37679 129.858 6.21427H126.651C126.651 5.88051 126.58 5.58616 126.439 5.33127C126.304 5.0764 126.099 4.87613 125.823 4.73049C125.548 4.58484 125.202 4.51201 124.785 4.51201C124.381 4.51201 124.041 4.5727 123.765 4.69407C123.489 4.81545 123.281 4.9793 123.14 5.18565C122.999 5.3859 122.929 5.60739 122.929 5.85016C122.929 6.05042 122.984 6.2325 123.094 6.39635C123.21 6.55408 123.373 6.70281 123.581 6.84238C123.796 6.98194 124.053 7.11544 124.353 7.24289C124.66 7.37033 125.003 7.49477 125.382 7.61611C126.093 7.84065 126.724 8.09254 127.275 8.37166C127.833 8.64478 128.302 8.9573 128.682 9.30929C129.068 9.65517 129.359 10.0496 129.555 10.4926C129.757 10.9357 129.858 11.4363 129.858 11.9946C129.858 12.5893 129.741 13.1174 129.509 13.5786C129.276 14.0398 128.942 14.4312 128.507 14.7529C128.072 15.0684 127.551 15.3081 126.945 15.472C126.338 15.6358 125.661 15.7178 124.914 15.7178C124.227 15.7178 123.55 15.6328 122.883 15.4629C122.221 15.2869 121.621 15.0199 121.082 14.6618C120.543 14.2977 120.11 13.8334 119.786 13.269C119.467 12.6986 119.308 12.0219 119.308 11.2391H122.543C122.543 11.6275 122.595 11.9552 122.699 12.2222C122.803 12.4892 122.956 12.7047 123.158 12.8685C123.361 13.0263 123.609 13.1416 123.903 13.2145C124.197 13.2812 124.534 13.3146 124.914 13.3146C125.324 13.3146 125.655 13.2569 125.906 13.1416C126.158 13.0203 126.341 12.8625 126.458 12.6683C126.574 12.468 126.632 12.2495 126.632 12.0129Z" fill="#131313"/>
  <path d="M131.2 14.0975C131.2 13.6605 131.359 13.2964 131.678 13.0051C131.996 12.7078 132.407 12.5591 132.91 12.5591C133.418 12.5591 133.828 12.7078 134.141 13.0051C134.459 13.2964 134.619 13.6605 134.619 14.0975C134.619 14.5344 134.459 14.9016 134.141 15.1989C133.828 15.4902 133.418 15.6359 132.91 15.6359C132.407 15.6359 131.996 15.4902 131.678 15.1989C131.359 14.9016 131.2 14.5344 131.2 14.0975Z" fill="#131313"/>
  <path d="M138.555 9.77252V15.5357H136.147V7.87504H138.398L138.555 9.77252ZM140.843 7.81844L140.8 10.0345C140.705 10.025 140.576 10.0132 140.414 9.99908C140.252 9.98489 140.116 9.97785 140.006 9.97785C139.725 9.97785 139.482 10.0109 139.277 10.077C139.077 10.1383 138.91 10.2327 138.777 10.3602C138.648 10.4829 138.553 10.6386 138.491 10.8274C138.434 11.0163 138.408 11.2357 138.413 11.4859L137.977 11.2027C137.977 10.6882 138.026 10.2209 138.127 9.80085C138.231 9.37605 138.379 9.01024 138.569 8.70341C138.76 8.39191 138.991 8.15355 139.263 7.98835C139.535 7.81844 139.839 7.73346 140.178 7.73346C140.297 7.73346 140.414 7.74055 140.528 7.75469C140.647 7.76888 140.752 7.79011 140.843 7.81844Z" fill="#131313"/>
  <path d="M145.897 13.6737V7.87506H148.313V15.5357H146.053L145.897 13.6737ZM146.125 12.1161L146.754 12.1019C146.754 12.6164 146.692 13.0931 146.568 13.5321C146.445 13.9663 146.261 14.3439 146.018 14.6649C145.78 14.9859 145.484 15.236 145.132 15.4154C144.784 15.59 144.381 15.6773 143.924 15.6773C143.542 15.6773 143.192 15.6254 142.873 15.5216C142.559 15.413 142.287 15.2455 142.058 15.0189C141.829 14.7876 141.651 14.4926 141.522 14.1339C141.398 13.7704 141.336 13.3362 141.336 12.8311V7.87506H143.745V12.8453C143.745 13.0152 143.766 13.1616 143.809 13.2842C143.852 13.407 143.914 13.5108 143.995 13.5958C144.076 13.676 144.176 13.7374 144.295 13.7799C144.419 13.8176 144.56 13.8365 144.717 13.8365C145.079 13.8365 145.363 13.761 145.568 13.6099C145.773 13.4589 145.915 13.2536 145.996 12.994C146.082 12.7344 146.125 12.4417 146.125 12.1161Z" fill="#131313"/>
  <path d="M1.97579 24.1168L4.52601 19.7838H6.01939V26.4107H4.52601V22.0823L1.97579 26.4107H0.482422V19.7838H1.97579V24.1168Z" fill="#131313"/>
  <path d="M13.3348 25.2728L13.2429 28.0083H11.8415V26.4107H11.3176V25.2728H13.3348ZM6.82373 26.4107V19.7838H8.31713V25.2638H10.8627V19.7838H12.3653V26.4107H6.82373Z" fill="#131313"/>
  <path d="M18.0266 22.2234L16.9284 24.0576L15.8578 24.0531V23.9939L17.1306 22.2234H18.0266ZM16.9284 24.0167L18.0266 25.8554H17.1306L15.8578 24.0804V24.0212L16.9284 24.0167ZM19.8692 22.2234L18.771 24.0576L17.7004 24.0531V23.9939L18.9732 22.2234H19.8692ZM18.771 24.0167L19.8692 25.8554H18.9732L17.7004 24.0804V24.0212L18.771 24.0167Z" fill="#131313"/>
  <path d="M26.2152 19.7838V26.4107H24.7172V20.9353H22.1716V26.4107H20.6782V19.7838H26.2152Z" fill="#131313"/>
  <path d="M29.4043 26.5018C29.0091 26.5018 28.6553 26.4396 28.3428 26.3151C28.0303 26.1907 27.7654 26.0193 27.5479 25.8008C27.3334 25.5793 27.1696 25.3244 27.0562 25.0362C26.9429 24.7479 26.8862 24.4399 26.8862 24.1122V23.9393C26.8862 23.5721 26.9383 23.2338 27.0424 22.9243C27.1466 22.6148 27.2982 22.3463 27.4973 22.1187C27.6995 21.8881 27.9476 21.7106 28.2417 21.5862C28.5358 21.4587 28.8712 21.395 29.248 21.395C29.6003 21.395 29.9143 21.4527 30.19 21.5679C30.4657 21.6802 30.6985 21.8426 30.8884 22.055C31.0784 22.2643 31.2223 22.5177 31.3204 22.815C31.4215 23.1094 31.472 23.4401 31.472 23.8073V24.3899H27.4652V23.475H30.0659V23.3658C30.0659 23.1928 30.0338 23.0411 29.9694 22.9106C29.9082 22.7802 29.8163 22.68 29.6938 22.6102C29.5743 22.5374 29.4226 22.501 29.2389 22.501C29.0642 22.501 28.9187 22.5374 28.8023 22.6102C28.6859 22.6831 28.5925 22.7862 28.522 22.9197C28.4547 23.0502 28.4056 23.2034 28.375 23.3794C28.3443 23.5524 28.329 23.739 28.329 23.9393V24.1122C28.329 24.3034 28.3551 24.4779 28.4071 24.6357C28.4593 24.7935 28.5358 24.9285 28.6369 25.0407C28.738 25.153 28.8605 25.241 29.0045 25.3047C29.1485 25.3684 29.3124 25.4003 29.4962 25.4003C29.7228 25.4003 29.9388 25.3578 30.144 25.2728C30.3493 25.1849 30.527 25.0483 30.6771 24.8632L31.3479 25.6233C31.2469 25.7689 31.1044 25.9101 30.9206 26.0466C30.7399 26.1801 30.5224 26.2893 30.2681 26.3743C30.0139 26.4593 29.7259 26.5018 29.4043 26.5018Z" fill="#131313"/>
  <path d="M35.4008 23.4432V24.5401H32.8965V23.4432H35.4008ZM33.3974 21.486V26.4107H31.9637V21.486H33.3974ZM36.3474 21.486V26.4107H34.9045V21.486H36.3474Z" fill="#131313"/>
  <path d="M39.4033 24.0622H38.4016V23.4568H39.0724C39.2225 23.4568 39.342 23.4356 39.4308 23.3931C39.5227 23.3506 39.5886 23.2915 39.6284 23.2156C39.6713 23.1397 39.6927 23.0518 39.6927 22.9516C39.6927 22.8636 39.6759 22.7802 39.6422 22.7013C39.6115 22.6224 39.5534 22.5572 39.4676 22.5056C39.3818 22.4509 39.2593 22.4237 39.1 22.4237C38.9682 22.4237 38.8518 22.4434 38.7507 22.4828C38.6527 22.5192 38.5746 22.5723 38.5164 22.6421C38.4613 22.7119 38.4337 22.7999 38.4337 22.9061H36.9955C36.9955 22.5905 37.0859 22.3205 37.2666 22.0959C37.4473 21.8714 37.6909 21.6999 37.9972 21.5816C38.3035 21.4602 38.642 21.3995 39.0127 21.3995C39.3343 21.3995 39.6253 21.4314 39.8857 21.4951C40.1461 21.5558 40.3682 21.6469 40.552 21.7682C40.7358 21.8896 40.8767 22.0398 40.9747 22.2188C41.0758 22.3948 41.1264 22.5996 41.1264 22.8333C41.1264 23.0002 41.0865 23.158 41.0069 23.3066C40.9272 23.4553 40.8124 23.5873 40.6623 23.7026C40.5122 23.8149 40.3299 23.9029 40.1155 23.9666C39.9041 24.0303 39.6667 24.0622 39.4033 24.0622ZM38.4016 23.7345H39.4033C39.6973 23.7345 39.9577 23.7633 40.1844 23.8209C40.4111 23.8756 40.601 23.9575 40.7542 24.0667C40.9073 24.176 41.0222 24.311 41.0988 24.4718C41.1784 24.6296 41.2183 24.8116 41.2183 25.018C41.2183 25.2516 41.1631 25.461 41.0528 25.6461C40.9456 25.8281 40.794 25.9829 40.5979 26.1103C40.4019 26.2378 40.1691 26.3349 39.8995 26.4016C39.6299 26.4684 39.3343 26.5018 39.0127 26.5018C38.6696 26.5018 38.3372 26.4471 38.0156 26.3379C37.6939 26.2287 37.4304 26.0603 37.2252 25.8327C37.02 25.6051 36.9174 25.3123 36.9174 24.9543H38.3556C38.3556 25.0483 38.3816 25.1348 38.4337 25.2137C38.4889 25.2926 38.5716 25.3563 38.6818 25.4048C38.7921 25.4534 38.933 25.4777 39.1046 25.4777C39.2731 25.4777 39.4063 25.4504 39.5043 25.3957C39.6054 25.3381 39.6774 25.2653 39.7203 25.1773C39.7632 25.0893 39.7846 24.9983 39.7846 24.9042C39.7846 24.7646 39.757 24.6539 39.7019 24.5719C39.6499 24.487 39.5702 24.4248 39.463 24.3853C39.3588 24.3428 39.2286 24.3216 39.0724 24.3216H38.4016V23.7345Z" fill="#131313"/>
  <path d="M44.1041 26.5018C43.709 26.5018 43.3551 26.4396 43.0427 26.3151C42.7302 26.1907 42.4653 26.0193 42.2478 25.8008C42.0333 25.5793 41.8694 25.3244 41.7561 25.0362C41.6427 24.7479 41.5861 24.4399 41.5861 24.1122V23.9393C41.5861 23.5721 41.6381 23.2338 41.7423 22.9243C41.8465 22.6148 41.9981 22.3463 42.1972 22.1187C42.3994 21.8881 42.6475 21.7106 42.9416 21.5862C43.2357 21.4587 43.5711 21.395 43.9479 21.395C44.3002 21.395 44.6142 21.4527 44.8899 21.5679C45.1656 21.6802 45.3984 21.8426 45.5883 22.055C45.7782 22.2643 45.9222 22.5177 46.0202 22.815C46.1213 23.1094 46.1719 23.4401 46.1719 23.8073V24.3899H42.1651V23.475H44.7658V23.3658C44.7658 23.1928 44.7336 23.0411 44.6693 22.9106C44.608 22.7802 44.5161 22.68 44.3936 22.6102C44.2741 22.5374 44.1225 22.501 43.9387 22.501C43.7641 22.501 43.6186 22.5374 43.5022 22.6102C43.3858 22.6831 43.2923 22.7862 43.2219 22.9197C43.1545 23.0502 43.1055 23.2034 43.0749 23.3794C43.0442 23.5524 43.0289 23.739 43.0289 23.9393V24.1122C43.0289 24.3034 43.0549 24.4779 43.107 24.6357C43.1591 24.7935 43.2357 24.9285 43.3368 25.0407C43.4378 25.153 43.5604 25.241 43.7044 25.3047C43.8483 25.3684 44.0123 25.4003 44.196 25.4003C44.4227 25.4003 44.6387 25.3578 44.8439 25.2728C45.0492 25.1849 45.2268 25.0483 45.3769 24.8632L46.0478 25.6233C45.9467 25.7689 45.8043 25.9101 45.6205 26.0466C45.4397 26.1801 45.2222 26.2893 44.968 26.3743C44.7138 26.4593 44.4258 26.5018 44.1041 26.5018Z" fill="#131313"/>
  <path d="M50.1007 23.4432V24.5401H47.5965V23.4432H50.1007ZM48.0973 21.486V26.4107H46.6637V21.486H48.0973ZM51.0473 21.486V26.4107H49.6045V21.486H51.0473Z" fill="#131313"/>
  <path d="M53.8732 25.3957C54.0264 25.3957 54.1597 25.3669 54.2731 25.3092C54.3866 25.2516 54.4739 25.1712 54.5351 25.068C54.5994 24.9618 54.6318 24.8344 54.6318 24.6857H55.9827C55.9827 25.0438 55.8891 25.3593 55.7025 25.6324C55.5185 25.9055 55.2701 26.1194 54.958 26.2742C54.6454 26.4259 54.293 26.5018 53.9009 26.5018C53.5151 26.5018 53.1779 26.4396 52.8903 26.3151C52.6022 26.1877 52.3618 26.0102 52.1687 25.7826C51.9757 25.5551 51.8302 25.2911 51.7322 24.9907C51.6372 24.6872 51.5897 24.3595 51.5897 24.0076V23.8892C51.5897 23.5402 51.6372 23.214 51.7322 22.9106C51.8302 22.6072 51.9757 22.3417 52.1687 22.1141C52.3618 21.8866 52.6007 21.7106 52.8856 21.5862C53.1737 21.4587 53.5104 21.395 53.8962 21.395C54.304 21.395 54.6637 21.4724 54.9763 21.6271C55.2916 21.7819 55.5383 22.0049 55.7161 22.2962C55.8938 22.5844 55.9827 22.9319 55.9827 23.3385H54.6318C54.6318 23.1807 54.6025 23.0396 54.5445 22.9152C54.4891 22.7877 54.4033 22.6876 54.2872 22.6148C54.1738 22.5389 54.0326 22.501 53.8643 22.501C53.6897 22.501 53.5459 22.5389 53.4325 22.6148C53.3221 22.6876 53.238 22.7892 53.1794 22.9197C53.1214 23.0502 53.0817 23.1989 53.0602 23.3658C53.0388 23.5296 53.0278 23.7041 53.0278 23.8892V24.0076C53.0278 24.1957 53.0388 24.3747 53.0602 24.5446C53.0817 24.7115 53.1214 24.8587 53.1794 24.9861C53.2411 25.1135 53.3269 25.2137 53.4372 25.2865C53.547 25.3593 53.6928 25.3957 53.8732 25.3957Z" fill="#131313"/>
  <path d="M58.0368 21.486V26.4107H56.5985V21.486H58.0368ZM61.2625 21.486L59.1718 24.6266H57.8161L57.6504 23.3067H58.5052L59.4337 21.486H61.2625ZM59.4792 26.4107L58.3996 24.3671L59.6956 23.7299L61.4141 26.4107H59.4792Z" fill="#131313"/>
  <path d="M64.3 25.2364V23.1246C64.3 22.9759 64.277 22.8484 64.231 22.7422C64.185 22.636 64.1128 22.5526 64.0151 22.4919C63.9168 22.4312 63.7898 22.4009 63.6334 22.4009C63.5017 22.4009 63.3867 22.4236 63.2889 22.4692C63.1938 22.5147 63.1206 22.5799 63.0683 22.6649C63.0191 22.7498 62.9946 22.8545 62.9946 22.9789H61.561C61.561 22.7574 61.6117 22.5511 61.7126 22.3599C61.8141 22.1688 61.9578 22.0003 62.145 21.8547C62.3348 21.709 62.5612 21.5968 62.8247 21.5179C63.0881 21.436 63.3841 21.395 63.7119 21.395C64.1008 21.395 64.4469 21.4602 64.7502 21.5907C65.0565 21.7182 65.2986 21.9108 65.4763 22.1688C65.6536 22.4236 65.7424 22.7453 65.7424 23.1337V25.1955C65.7424 25.4928 65.7597 25.7265 65.7932 25.8964C65.8297 26.0633 65.882 26.209 65.9495 26.3334V26.4107H64.5018C64.4344 26.2681 64.3842 26.0921 64.3502 25.8828C64.3167 25.6703 64.3 25.4549 64.3 25.2364ZM64.4788 23.4067L64.4882 24.1896H63.7762C63.6167 24.1896 63.4787 24.2093 63.3626 24.2488C63.2492 24.2882 63.1572 24.3428 63.0866 24.4126C63.016 24.4794 62.9642 24.5583 62.9303 24.6493C62.8999 24.7373 62.8848 24.8344 62.8848 24.9406C62.8848 25.0407 62.9088 25.1318 62.958 25.2137C63.0071 25.2926 63.0746 25.3548 63.1603 25.4003C63.246 25.4458 63.3454 25.4686 63.4588 25.4686C63.646 25.4686 63.8049 25.4322 63.9367 25.3593C64.0715 25.2865 64.1756 25.1985 64.2493 25.0954C64.323 24.9892 64.3596 24.8906 64.3596 24.7995L64.7041 25.3912C64.6493 25.5126 64.5818 25.6385 64.5018 25.7689C64.4224 25.8964 64.3214 26.0163 64.1986 26.1285C64.0763 26.2378 63.9278 26.3273 63.7532 26.3971C63.5817 26.4669 63.3746 26.5018 63.1326 26.5018C62.82 26.5018 62.5371 26.4396 62.2825 26.3151C62.0284 26.1877 61.8245 26.0132 61.6713 25.7917C61.5213 25.5702 61.4465 25.3154 61.4465 25.0271C61.4465 24.7692 61.4936 24.5401 61.5887 24.3398C61.6839 24.1396 61.8261 23.9696 62.0159 23.83C62.2093 23.6905 62.4508 23.5858 62.7421 23.516C63.0333 23.4431 63.3731 23.4067 63.762 23.4067H64.4788Z" fill="#131313"/>
  <path d="M67.5901 23.9302H69.033L67.6638 26.4107H66.2208L67.5901 23.9302ZM68.518 21.486H70.7285V26.4107H69.2949V22.5829H68.518C68.356 22.5829 68.2179 22.6133 68.1045 22.674C67.9942 22.7347 67.9116 22.8135 67.8567 22.9106C67.8013 23.0047 67.7736 23.1003 67.7736 23.1974C67.7736 23.2945 67.8013 23.3886 67.8567 23.4796C67.9116 23.5706 67.9942 23.6465 68.1045 23.7072C68.2148 23.7648 68.3513 23.7936 68.5133 23.7936H69.8507V24.7358H68.5133C68.1798 24.7358 67.8781 24.6964 67.6084 24.6175C67.3417 24.5386 67.1138 24.4278 66.9235 24.2852C66.7337 24.1426 66.5884 23.9757 66.4875 23.7845C66.3892 23.5903 66.34 23.3795 66.34 23.1519C66.34 22.9122 66.3907 22.6907 66.4916 22.4874C66.5931 22.284 66.7368 22.1081 66.9235 21.9594C67.1138 21.8077 67.3433 21.6908 67.6131 21.6089C67.8823 21.527 68.1845 21.486 68.518 21.486Z" fill="#131313"/>
  <path d="M77.1114 21.486V22.5921H74.7358V21.486H77.1114ZM75.1723 21.486V26.4107H73.7383V21.486H75.1723ZM78.1314 21.486V26.4107H76.6932V21.486H78.1314Z" fill="#131313"/>
  <path d="M80.3094 22.4328V28.3041H78.8759V21.486H80.2132L80.3094 22.4328ZM83.4112 23.8937V23.9893C83.4112 24.3474 83.3699 24.6796 83.2868 24.9861C83.2042 25.2896 83.0803 25.5551 82.9145 25.7826C82.7525 26.0102 82.5517 26.1877 82.3128 26.3151C82.0739 26.4396 81.7968 26.5018 81.481 26.5018C81.1809 26.5018 80.9206 26.4396 80.6999 26.3151C80.4824 26.1877 80.2989 26.0117 80.1484 25.7872C80.0015 25.5596 79.8823 25.3002 79.7902 25.0089C79.7014 24.7145 79.6324 24.4005 79.5832 24.0667V23.8801C79.6324 23.5251 79.7029 23.1959 79.795 22.8925C79.8864 22.589 80.0062 22.3265 80.1531 22.105C80.3 21.8805 80.4824 21.706 80.6999 21.5816C80.9174 21.4572 81.1762 21.395 81.4763 21.395C81.7889 21.395 82.066 21.4542 82.3081 21.5725C82.5501 21.6908 82.7525 21.8608 82.9145 22.0823C83.0803 22.3008 83.2042 22.5632 83.2868 22.8697C83.3699 23.1761 83.4112 23.5175 83.4112 23.8937ZM81.973 23.9893V23.8937C81.973 23.6935 81.9573 23.5099 81.927 23.343C81.8961 23.1731 81.847 23.026 81.7801 22.9015C81.7126 22.7741 81.6237 22.6755 81.5134 22.6057C81.4031 22.5359 81.2682 22.501 81.1088 22.501C80.9373 22.501 80.7919 22.5283 80.6722 22.5829C80.553 22.6376 80.4563 22.7179 80.3831 22.8242C80.3094 22.9273 80.2561 23.0548 80.2221 23.2065C80.1912 23.3582 80.1745 23.5312 80.1714 23.7254V24.226C80.1745 24.4536 80.2069 24.6569 80.2681 24.8359C80.3324 25.0119 80.4317 25.15 80.5666 25.2501C80.7046 25.3472 80.8881 25.3957 81.1182 25.3957C81.2802 25.3957 81.4151 25.3609 81.5223 25.2911C81.6326 25.2183 81.7199 25.1166 81.7842 24.9861C81.8517 24.8557 81.8992 24.7054 81.927 24.5355C81.9573 24.3656 81.973 24.1835 81.973 23.9893Z" fill="#131313"/>
  <path d="M86.6186 25.2364V23.1246C86.6186 22.9759 86.5956 22.8484 86.5496 22.7422C86.5036 22.636 86.4314 22.5526 86.3337 22.4919C86.2354 22.4312 86.1084 22.4009 85.952 22.4009C85.8203 22.4009 85.7058 22.4236 85.6075 22.4692C85.5129 22.5147 85.4392 22.5799 85.3869 22.6649C85.3383 22.7498 85.3137 22.8545 85.3137 22.9789H83.8802C83.8802 22.7574 83.9303 22.5511 84.0318 22.3599C84.1327 22.1688 84.2764 22.0003 84.4636 21.8547C84.6534 21.709 84.8803 21.5968 85.1438 21.5179C85.4067 21.436 85.7027 21.395 86.0305 21.395C86.4194 21.395 86.7655 21.4602 87.0688 21.5907C87.3751 21.7182 87.6172 21.9108 87.7949 22.1688C87.9727 22.4236 88.0616 22.7453 88.0616 23.1337V25.1955C88.0616 25.4928 88.0783 25.7265 88.1118 25.8964C88.1489 26.0633 88.2006 26.209 88.2681 26.3334V26.4107H86.8209C86.7535 26.2681 86.7028 26.0921 86.6688 25.8828C86.6353 25.6703 86.6186 25.4549 86.6186 25.2364ZM86.7979 23.4067L86.8068 24.1896H86.0948C85.9353 24.1896 85.7973 24.2093 85.6812 24.2488C85.5678 24.2882 85.4758 24.3428 85.4052 24.4126C85.3351 24.4794 85.2828 24.5583 85.2494 24.6493C85.2185 24.7373 85.2034 24.8344 85.2034 24.9406C85.2034 25.0407 85.228 25.1318 85.2766 25.2137C85.3257 25.2926 85.3932 25.3548 85.4789 25.4003C85.5646 25.4458 85.6645 25.4686 85.7774 25.4686C85.9646 25.4686 86.124 25.4322 86.2553 25.3593C86.3902 25.2865 86.4947 25.1985 86.5679 25.0954C86.6416 24.9892 86.6782 24.8906 86.6782 24.7995L87.0227 25.3912C86.9679 25.5126 86.9004 25.6385 86.8209 25.7689C86.741 25.8964 86.64 26.0163 86.5172 26.1285C86.3949 26.2378 86.2464 26.3273 86.0718 26.3971C85.9003 26.4669 85.6933 26.5018 85.4512 26.5018C85.1391 26.5018 84.8557 26.4396 84.6011 26.3151C84.347 26.1877 84.1431 26.0132 83.9899 25.7917C83.8399 25.5702 83.7651 25.3154 83.7651 25.0271C83.7651 24.7692 83.8127 24.5401 83.9073 24.3398C84.0025 24.1396 84.1447 23.9696 84.335 23.83C84.5279 23.6905 84.77 23.5858 85.0607 23.516C85.3519 23.4431 85.6917 23.4067 86.0806 23.4067H86.7979Z" fill="#131313"/>
  <path d="M91.3333 24.3762H89.7895L89.7801 23.4751H91.0573C91.2047 23.4751 91.3239 23.4599 91.4159 23.4295C91.5079 23.3961 91.5738 23.3476 91.6135 23.2839C91.6564 23.2202 91.6779 23.1443 91.6779 23.0563C91.6779 22.9683 91.6643 22.8955 91.6366 22.8378C91.6088 22.7771 91.566 22.7286 91.5079 22.6922C91.4525 22.6528 91.3835 22.6254 91.3009 22.6102C91.2183 22.5921 91.1216 22.5829 91.0118 22.5829H90.3452V26.4107H88.907V21.486H91.0118C91.3365 21.486 91.6271 21.5149 91.8844 21.5725C92.1447 21.6271 92.3654 21.7121 92.5462 21.8274C92.7303 21.9397 92.8709 22.0823 92.9692 22.2552C93.067 22.4252 93.1161 22.627 93.1161 22.8606C93.1161 23.0123 93.0795 23.1549 93.0058 23.2884C92.9352 23.4219 92.8296 23.5403 92.689 23.6434C92.5509 23.7466 92.381 23.8316 92.1787 23.8983C91.9764 23.9621 91.7437 24.0015 91.4802 24.0167L91.3333 24.3762ZM91.3333 26.4107H89.4585L89.9223 25.3138H91.3333C91.4771 25.3138 91.5952 25.2971 91.6867 25.2638C91.7788 25.2273 91.8462 25.1758 91.8891 25.109C91.9351 25.0392 91.9581 24.9543 91.9581 24.8541C91.9581 24.7601 91.9382 24.6781 91.8985 24.6083C91.8614 24.5355 91.7971 24.4794 91.7056 24.4399C91.6136 24.3975 91.4896 24.3762 91.3333 24.3762H90.1063L90.1157 23.4751H91.4708L91.8018 23.8392C92.1693 23.8604 92.4699 23.9271 92.7026 24.0394C92.9383 24.1486 93.1114 24.2867 93.2217 24.4536C93.3352 24.6205 93.3916 24.8041 93.3916 25.0043C93.3916 25.238 93.3472 25.4428 93.2583 25.6188C93.1694 25.7947 93.0366 25.9419 92.8589 26.0603C92.6843 26.1756 92.4683 26.2636 92.2106 26.3243C91.9565 26.3819 91.6643 26.4107 91.3333 26.4107Z" fill="#131313"/>
  <path d="M94.8305 21.486H96.264L96.2363 23.0836C96.2243 23.6267 96.16 24.0941 96.0434 24.4855C95.9299 24.8738 95.7752 25.1985 95.5791 25.4595C95.3862 25.7204 95.164 25.9268 94.9131 26.0785C94.6647 26.2302 94.4028 26.3409 94.1273 26.4107H93.9203L93.8973 25.3229L94.0217 25.3048C94.1932 25.1348 94.3296 24.9709 94.4305 24.8132C94.5314 24.6524 94.6067 24.4885 94.6558 24.3216C94.7076 24.1517 94.7432 23.9666 94.7615 23.7664C94.7798 23.566 94.7918 23.3385 94.798 23.0836L94.8305 21.486ZM95.2252 21.486H98.5936V26.4107H97.1601V22.6057H95.2252V21.486ZM93.5898 25.3048H99.3193V27.8991H97.8816V26.4107H95.06V27.8991H93.5898V25.3048Z" fill="#131313"/>
  <path d="M102.376 25.2364V23.1246C102.376 22.9759 102.353 22.8484 102.307 22.7422C102.261 22.636 102.188 22.5526 102.091 22.4919C101.992 22.4312 101.865 22.4009 101.709 22.4009C101.577 22.4009 101.462 22.4236 101.364 22.4692C101.269 22.5147 101.196 22.5799 101.144 22.6649C101.095 22.7498 101.07 22.8545 101.07 22.9789H99.6366C99.6366 22.7574 99.6873 22.5511 99.7882 22.3599C99.8896 22.1688 100.033 22.0003 100.22 21.8547C100.41 21.709 100.637 21.5968 100.9 21.5179C101.164 21.436 101.46 21.395 101.787 21.395C102.176 21.395 102.522 21.4602 102.826 21.5907C103.132 21.7182 103.374 21.9108 103.552 22.1688C103.729 22.4236 103.818 22.7453 103.818 23.1337V25.1955C103.818 25.4928 103.835 25.7265 103.869 25.8964C103.905 26.0633 103.958 26.209 104.025 26.3334V26.4107H102.577C102.51 26.2681 102.46 26.0921 102.426 25.8828C102.392 25.6703 102.376 25.4549 102.376 25.2364ZM102.554 23.4067L102.564 24.1896H101.852C101.692 24.1896 101.554 24.2093 101.438 24.2488C101.325 24.2882 101.233 24.3428 101.162 24.4126C101.092 24.4794 101.04 24.5583 101.006 24.6493C100.976 24.7373 100.96 24.8344 100.96 24.9406C100.96 25.0407 100.984 25.1318 101.034 25.2137C101.083 25.2926 101.15 25.3548 101.236 25.4003C101.322 25.4458 101.421 25.4686 101.534 25.4686C101.722 25.4686 101.88 25.4322 102.012 25.3593C102.147 25.2865 102.251 25.1985 102.325 25.0954C102.399 24.9892 102.435 24.8906 102.435 24.7995L102.78 25.3912C102.725 25.5126 102.657 25.6385 102.577 25.7689C102.498 25.8964 102.397 26.0163 102.274 26.1285C102.152 26.2378 102.003 26.3273 101.829 26.3971C101.657 26.4669 101.45 26.5018 101.208 26.5018C100.896 26.5018 100.612 26.4396 100.358 26.3151C100.104 26.1877 99.9001 26.0132 99.7469 25.7917C99.5969 25.5702 99.5221 25.3154 99.5221 25.0271C99.5221 24.7692 99.5691 24.5401 99.6643 24.3398C99.7595 24.1396 99.9017 23.9696 100.091 23.83C100.285 23.6905 100.526 23.5858 100.818 23.516C101.109 23.4431 101.449 23.4067 101.838 23.4067H102.554Z" fill="#131313"/>
  <path d="M104.471 25.86L105.565 24.0212L106.64 24.0257V24.0849L105.371 25.86H104.471ZM104.471 22.2234H105.371L106.64 23.9984V24.0576L105.565 24.0621L104.471 22.2234ZM106.323 25.86L107.416 24.0212L108.491 24.0257V24.0849L107.223 25.86H106.323ZM106.323 22.2234H107.223L108.491 23.9984V24.0576L107.416 24.0621L106.323 22.2234Z" fill="#131313"/>
</svg>

<svg id="search" viewBox="0 0 24 24" fill="none" xmlns="http://www.w3.org/2000/svg">
  <path d="M21.5307 20.4693L16.8367 15.7762C18.1972 14.1428 18.8756 12.0478 18.7308 9.92691C18.586 7.80604 17.6291 5.82265 16.0592 4.38932C14.4893 2.95599 12.4273 2.18308 10.302 2.23138C8.17675 2.27968 6.15193 3.14547 4.64876 4.64864C3.14559 6.15181 2.2798 8.17663 2.2315 10.3019C2.1832 12.4271 2.95611 14.4892 4.38944 16.0591C5.82277 17.629 7.80617 18.5859 9.92703 18.7307C12.0479 18.8755 14.1429 18.1971 15.7763 16.8365L20.4695 21.5306C20.5392 21.6003 20.6219 21.6556 20.7129 21.6933C20.804 21.731 20.9015 21.7504 21.0001 21.7504C21.0986 21.7504 21.1962 21.731 21.2873 21.6933C21.3783 21.6556 21.461 21.6003 21.5307 21.5306C21.6004 21.4609 21.6557 21.3782 21.6934 21.2871C21.7311 21.1961 21.7505 21.0985 21.7505 21C21.7505 20.9014 21.7311 20.8038 21.6934 20.7128C21.6557 20.6218 21.6004 20.539 21.5307 20.4693ZM3.75009 10.5C3.75009 9.16495 4.14597 7.8599 4.88767 6.74987C5.62937 5.63984 6.68358 4.77467 7.91698 4.26378C9.15038 3.75289 10.5076 3.61922 11.817 3.87967C13.1263 4.14012 14.3291 4.78299 15.2731 5.727C16.2171 6.671 16.8599 7.87374 17.1204 9.18311C17.3808 10.4925 17.2472 11.8497 16.7363 13.0831C16.2254 14.3165 15.3602 15.3707 14.2502 16.1124C13.1402 16.8541 11.8351 17.25 10.5001 17.25C8.71049 17.248 6.99475 16.5362 5.72931 15.2708C4.46387 14.0053 3.75208 12.2896 3.75009 10.5Z" fill="#131313"/>
</svg>

<svg id="date" viewBox="0 0 9 9" fill="none" xmlns="http://www.w3.org/2000/svg">
  <path d="M2.73861 0.973572C2.80478 0.973572 2.86824 0.999969 2.91503 1.04696C2.96183 1.09394 2.98811 1.15767 2.98811 1.22412V1.47467H6.98021V1.22412C6.98021 1.15767 7.00649 1.09394 7.05328 1.04696C7.10008 0.999969 7.16354 0.973572 7.22971 0.973572C7.29589 0.973572 7.35935 0.999969 7.40614 1.04696C7.45293 1.09394 7.47922 1.15767 7.47922 1.22412V1.47467H7.97823C8.24292 1.47467 8.49677 1.58026 8.68394 1.76821C8.8711 1.95616 8.97625 2.21108 8.97625 2.47688V7.98899C8.97625 8.25479 8.8711 8.5097 8.68394 8.69765C8.49677 8.8856 8.24292 8.99119 7.97823 8.99119H1.99009C1.7254 8.99119 1.47155 8.8856 1.28438 8.69765C1.09721 8.5097 0.992065 8.25479 0.992065 7.98899V2.47688C0.992065 2.21108 1.09721 1.95616 1.28438 1.76821C1.47155 1.58026 1.7254 1.47467 1.99009 1.47467H2.4891V1.22412C2.4891 1.15767 2.51539 1.09394 2.56218 1.04696C2.60897 0.999969 2.67243 0.973572 2.73861 0.973572ZM1.99009 1.97577C1.85774 1.97577 1.73082 2.02857 1.63723 2.12254C1.54365 2.21652 1.49108 2.34398 1.49108 2.47688V2.97798H8.47724V2.47688C8.47724 2.34398 8.42467 2.21652 8.33108 2.12254C8.2375 2.02857 8.11058 1.97577 7.97823 1.97577H1.99009ZM8.47724 3.47908H1.49108V7.98899C1.49108 8.12189 1.54365 8.24935 1.63723 8.34332C1.73082 8.4373 1.85774 8.49009 1.99009 8.49009H7.97823C8.11058 8.49009 8.2375 8.4373 8.33108 8.34332C8.42467 8.24935 8.47724 8.12189 8.47724 7.98899V3.47908Z" fill="#131313"/>
</svg>

<svg id="weather"  viewBox="0 0 10 8" fill="none" xmlns="http://www.w3.org/2000/svg">
  <path d="M7.43643 2.43848L7.43901 2.46421H7.46487H7.50331C8.46667 2.46421 9.24903 3.26811 9.24903 4.26119C9.24903 5.2545 8.46667 6.05816 7.50331 6.05816H2.40198C1.43862 6.05816 0.65626 5.2545 0.65626 4.26119C0.65626 3.26812 1.43862 2.46421 2.40222 2.46421H2.44067H2.46653L2.4691 2.43848C2.53162 1.81207 2.7766 1.24483 3.193 0.834406C3.6091 0.424285 4.19815 0.168955 4.95264 0.168955C5.70708 0.168955 6.29631 0.426347 6.71256 0.837544C7.12913 1.24905 7.37415 1.81632 7.43643 2.43848ZM3.8711 7.10926C3.95883 7.10926 4.04314 7.1452 4.10545 7.20947C4.16779 7.27377 4.20296 7.36117 4.20296 7.45248C4.20296 7.5438 4.16779 7.6312 4.10545 7.6955C4.04314 7.75977 3.95883 7.79571 3.8711 7.79571C3.78338 7.79571 3.69906 7.75977 3.63676 7.6955C3.57442 7.6312 3.53925 7.5438 3.53925 7.45248C3.53925 7.36117 3.57442 7.27377 3.63676 7.20947C3.69906 7.1452 3.78338 7.10926 3.8711 7.10926ZM6.0337 7.10926C6.12143 7.10926 6.20574 7.1452 6.26805 7.20947C6.33039 7.27377 6.36556 7.36117 6.36556 7.45248C6.36556 7.5438 6.33039 7.6312 6.26805 7.6955C6.20574 7.75977 6.12143 7.79571 6.0337 7.79571C5.94598 7.79571 5.86166 7.75977 5.79936 7.6955C5.73702 7.6312 5.70185 7.5438 5.70185 7.45248C5.70185 7.36117 5.73702 7.27377 5.79936 7.20947C5.86166 7.1452 5.94598 7.10926 6.0337 7.10926ZM2.7898 6.61352C2.87753 6.61352 2.96184 6.64946 3.02415 6.71373C3.08649 6.77804 3.12166 6.86544 3.12166 6.95675C3.12166 7.04806 3.08649 7.13546 3.02415 7.19976C2.96184 7.26404 2.87753 7.29998 2.7898 7.29998C2.70208 7.29998 2.61777 7.26404 2.55546 7.19976C2.49312 7.13546 2.45795 7.04806 2.45795 6.95675C2.45795 6.86544 2.49312 6.77804 2.55546 6.71373C2.61776 6.64946 2.70208 6.61352 2.7898 6.61352ZM4.9524 6.61352C5.04013 6.61352 5.12444 6.64946 5.18675 6.71373C5.24909 6.77804 5.28426 6.86544 5.28426 6.95675C5.28426 7.04806 5.24909 7.13546 5.18675 7.19976C5.12444 7.26404 5.04013 7.29998 4.9524 7.29998C4.86468 7.29998 4.78036 7.26404 4.71806 7.19976C4.65572 7.13546 4.62055 7.04806 4.62055 6.95675C4.62055 6.86544 4.65572 6.77804 4.71806 6.71373C4.78036 6.64946 4.86468 6.61352 4.9524 6.61352ZM7.115 6.61352C7.20273 6.61352 7.28704 6.64946 7.34935 6.71373C7.41169 6.77804 7.44686 6.86544 7.44686 6.95675C7.44686 7.04806 7.41169 7.13546 7.34935 7.19976C7.28704 7.26404 7.20273 7.29998 7.115 7.29998C7.02728 7.29998 6.94296 7.26404 6.88066 7.19976C6.81832 7.13546 6.78315 7.04806 6.78315 6.95675C6.78315 6.86544 6.81832 6.77804 6.88066 6.71373C6.94296 6.64946 7.02728 6.61352 7.115 6.61352ZM4.95264 0.730237C3.91248 0.730237 3.00777 1.59845 3.00777 2.79381C3.00777 2.96437 2.86374 3.09936 2.69825 3.09936H2.35704C1.71676 3.09936 1.19959 3.63687 1.19959 4.29787C1.19959 4.9591 1.71674 5.49688 2.3568 5.49688H7.54849C8.18854 5.49688 8.7057 4.95911 8.7057 4.29812C8.7057 3.63689 8.18879 3.09911 7.54849 3.09911H7.20727C7.04149 3.09911 6.89752 2.96431 6.89752 2.79405C6.89752 1.58319 5.99292 0.730237 4.95264 0.730237Z" fill="#131313" stroke="#F2F2F2" stroke-width="0.0571492"/>
</svg>

<svg id="burger" viewBox="0 0 24 24" fill="none" xmlns="http://www.w3.org/2000/svg">
  <path d="M3 6.00098H21M3 12.001H21M3 18.001H21" stroke="white" stroke-width="1.5" stroke-linecap="round" stroke-linejoin="round"/>
</svg>


</svg>